<!DOCTYPE svg PUBLIC "-//W3C//DTD SVG 1.1//EN" "http://www.w3.org/Graphics/SVG/1.1/DTD/svg11.dtd">

<!-- Uploaded to: SVG Repo, www.svgrepo.com, Transformed by: SVG Repo Mixer Tools -->
<svg width="128px" height="128px" viewBox="-5.52 -5.52 35.04 35.04" fill="none" xmlns="http://www.w3.org/2000/svg" transform="rotate(0)matrix(1, 0, 0, 1, 0, 0)" stroke="#e40c0c">

<g id="SVGRepo_bgCarrier" stroke-width="0"/>

<g id="SVGRepo_tracerCarrier" stroke-linecap="round" stroke-linejoin="round" stroke="#CCCCCC" stroke-width="0.144"/>

<g id="SVGRepo_iconCarrier"> <path d="M19 12C19 15.866 15.866 19 12 19M19 12C19 8.13401 15.866 5 12 5M19 12H21M12 19C8.13401 19 5 15.866 5 12M12 19V21M5 12C5 8.13401 8.13401 5 12 5M5 12H3M12 5V3M15 12C15 13.6569 13.6569 15 12 15C10.3431 15 9 13.6569 9 12C9 10.3431 10.3431 9 12 9C13.6569 9 15 10.3431 15 12Z" stroke="#000ba8" stroke-width="2.4" stroke-linecap="round" stroke-linejoin="round"/> </g>

</svg>